grf
version=1
nRows=18
nColumns=46
inDegrees=yes
endheader
time	ground_force_1_vx	ground_force_1_vy	ground_force_1_vz	ground_force_1_px	ground_force_1_py	ground_force_1_pz	ground_moment_1_mx	ground_moment_1_my	ground_moment_1_mz	ground_force_2_vx	ground_force_2_vy	ground_force_2_vz	ground_force_2_px	ground_force_2_py	ground_force_2_pz	ground_moment_2_mx	ground_moment_2_my	ground_moment_2_mz	ground_force_3_vx	ground_force_3_vy	ground_force_3_vz	ground_force_3_px	ground_force_3_py	ground_force_3_pz	ground_moment_3_mx	ground_moment_3_my	ground_moment_3_mz	ground_force_4_vx	ground_force_4_vy	ground_force_4_vz	ground_force_4_px	ground_force_4_py	ground_force_4_pz	ground_moment_4_mx	ground_moment_4_my	ground_moment_4_mz	ground_force_5_vx	ground_force_5_vy	ground_force_5_vz	ground_force_5_px	ground_force_5_py	ground_force_5_pz	ground_moment_5_mx	ground_moment_5_my	ground_moment_5_mz
0.885000	0.000000	0.000000	0.000000	0.000000	0.000000	0.000000	0.000000	0.000000	0.000000	0.000000	0.000000	0.000000	0.000000	0.000000	0.000000	0.000000	0.000000	0.000000	0.000000	0.000000	0.000000	0.000000	0.000000	0.000000	0.000000	0.000000	0.000000	0.881450	346.206707	-67.729635	0.180679	0.000000	-0.907392	0.000000	1.589978	0.000000	-0.583107	343.448868	68.674354	0.204720	0.000000	-1.581449	0.000000	-2.569738	-0.000000
0.885500	0.000000	0.000000	0.000000	0.000000	0.000000	0.000000	0.000000	0.000000	0.000000	0.000000	0.000000	0.000000	0.000000	0.000000	0.000000	0.000000	0.000000	0.000000	0.000000	0.000000	0.000000	0.000000	0.000000	0.000000	0.000000	0.000000	0.000000	0.928233	346.368325	-67.743835	0.180638	0.000000	-0.907424	0.000000	1.589252	0.000000	-0.602727	342.979392	68.557556	0.204713	0.000000	-1.581449	0.000000	-2.571415	-0.000000
0.886000	0.000000	0.000000	0.000000	0.000000	0.000000	0.000000	0.000000	0.000000	0.000000	0.000000	0.000000	0.000000	0.000000	0.000000	0.000000	0.000000	0.000000	0.000000	0.000000	0.000000	0.000000	0.000000	0.000000	0.000000	0.000000	0.000000	0.000000	0.978280	346.532717	-67.757548	0.180596	0.000000	-0.907455	0.000000	1.588672	0.000000	-0.625050	342.517490	68.445037	0.204707	0.000000	-1.581449	0.000000	-2.572956	-0.000000
0.886500	0.000000	0.000000	0.000000	0.000000	0.000000	0.000000	0.000000	0.000000	0.000000	0.000000	0.000000	0.000000	0.000000	0.000000	0.000000	0.000000	0.000000	0.000000	0.000000	0.000000	0.000000	0.000000	0.000000	0.000000	0.000000	0.000000	0.000000	1.031550	346.699792	-67.770765	0.180554	0.000000	-0.907487	0.000000	1.588229	0.000000	-0.650041	342.063659	68.336891	0.204702	0.000000	-1.581449	0.000000	-2.574360	-0.000000
0.887000	0.000000	0.000000	0.000000	0.000000	0.000000	0.000000	0.000000	0.000000	0.000000	0.000000	0.000000	0.000000	0.000000	0.000000	0.000000	0.000000	0.000000	0.000000	0.000000	0.000000	0.000000	0.000000	0.000000	0.000000	0.000000	0.000000	0.000000	1.087993	346.869446	-67.783484	0.180511	0.000000	-0.907519	0.000000	1.587914	0.000000	-0.677673	341.618394	68.233205	0.204696	0.000000	-1.581449	0.000000	-2.575629	-0.000000
0.887500	0.000000	0.000000	0.000000	0.000000	0.000000	0.000000	0.000000	0.000000	0.000000	0.000000	0.000000	0.000000	0.000000	0.000000	0.000000	0.000000	0.000000	0.000000	0.000000	0.000000	0.000000	0.000000	0.000000	0.000000	0.000000	0.000000	0.000000	1.147550	347.041567	-67.795709	0.180467	0.000000	-0.907551	0.000000	1.587721	0.000000	-0.707921	341.182191	68.134056	0.204691	0.000000	-1.581449	0.000000	-2.576762	-0.000000
0.888000	0.000000	0.000000	0.000000	0.000000	0.000000	0.000000	0.000000	0.000000	0.000000	0.000000	0.000000	0.000000	0.000000	0.000000	0.000000	0.000000	0.000000	0.000000	0.000000	0.000000	0.000000	0.000000	0.000000	0.000000	0.000000	0.000000	0.000000	1.210158	347.216036	-67.807451	0.180423	0.000000	-0.907583	0.000000	1.587640	0.000000	-0.740764	340.755550	68.039518	0.204685	0.000000	-1.581449	0.000000	-2.577761	-0.000000
0.888500	0.000000	0.000000	0.000000	0.000000	0.000000	0.000000	0.000000	0.000000	0.000000	0.000000	0.000000	0.000000	0.000000	0.000000	0.000000	0.000000	0.000000	0.000000	0.000000	0.000000	0.000000	0.000000	0.000000	0.000000	0.000000	0.000000	0.000000	1.275752	347.392744	-67.818730	0.180379	0.000000	-0.907615	0.000000	1.587663	0.000000	-0.776180	340.338967	67.949655	0.204680	0.000000	-1.581449	0.000000	-2.578628	-0.000000
0.889000	0.000000	0.000000	0.000000	0.000000	0.000000	0.000000	0.000000	0.000000	0.000000	0.000000	0.000000	0.000000	0.000000	0.000000	0.000000	0.000000	0.000000	0.000000	0.000000	0.000000	0.000000	0.000000	0.000000	0.000000	0.000000	0.000000	0.000000	1.344270	347.571591	-67.829572	0.180334	0.000000	-0.907646	0.000000	1.587782	0.000000	-0.814149	339.932923	67.864529	0.204675	0.000000	-1.581449	0.000000	-2.579365	-0.000000
0.889500	0.000000	0.000000	0.000000	0.000000	0.000000	0.000000	0.000000	0.000000	0.000000	0.000000	0.000000	0.000000	0.000000	0.000000	0.000000	0.000000	0.000000	0.000000	0.000000	0.000000	0.000000	0.000000	0.000000	0.000000	0.000000	0.000000	0.000000	1.415652	347.752483	-67.840011	0.180288	0.000000	-0.907678	0.000000	1.587988	0.000000	-0.854642	339.537885	67.784200	0.204669	0.000000	-1.581449	0.000000	-2.579977	-0.000000
0.890000	0.000000	0.000000	0.000000	0.000000	0.000000	0.000000	0.000000	0.000000	0.000000	0.000000	0.000000	0.000000	0.000000	0.000000	0.000000	0.000000	0.000000	0.000000	0.000000	0.000000	0.000000	0.000000	0.000000	0.000000	0.000000	0.000000	0.000000	1.489844	347.935329	-67.850084	0.180242	0.000000	-0.907709	0.000000	1.588272	0.000000	-0.897630	339.154304	67.708718	0.204664	0.000000	-1.581449	0.000000	-2.580467	-0.000000
0.890500	0.000000	0.000000	0.000000	0.000000	0.000000	0.000000	0.000000	0.000000	0.000000	0.000000	0.000000	0.000000	0.000000	0.000000	0.000000	0.000000	0.000000	0.000000	0.000000	0.000000	0.000000	0.000000	0.000000	0.000000	0.000000	0.000000	0.000000	1.566792	348.120038	-67.859840	0.180195	0.000000	-0.907740	-0.000000	1.588627	0.000000	-0.943075	338.782616	67.638129	0.204658	0.000000	-1.581449	0.000000	-2.580840	-0.000000
0.891000	0.000000	0.000000	0.000000	0.000000	0.000000	0.000000	0.000000	0.000000	0.000000	0.000000	0.000000	0.000000	0.000000	0.000000	0.000000	0.000000	0.000000	0.000000	0.000000	0.000000	0.000000	0.000000	0.000000	0.000000	0.000000	0.000000	0.000000	1.646441	348.306527	-67.869337	0.180148	0.000000	-0.907771	-0.000000	1.589045	0.000000	-0.990943	338.423232	67.572465	0.204652	0.000000	-1.581449	0.000000	-2.581103	-0.000000
0.891500	0.000000	0.000000	0.000000	0.000000	0.000000	0.000000	0.000000	0.000000	0.000000	0.000000	0.000000	0.000000	0.000000	0.000000	0.000000	0.000000	0.000000	0.000000	0.000000	0.000000	0.000000	0.000000	0.000000	0.000000	0.000000	0.000000	0.000000	1.728731	348.494719	-67.878641	0.180101	0.000000	-0.907802	-0.000000	1.589519	0.000000	-1.041196	338.076552	67.511747	0.204646	0.000000	-1.581448	0.000000	-2.581259	-0.000000
0.892000	0.000000	0.000000	0.000000	0.000000	0.000000	0.000000	0.000000	0.000000	0.000000	0.000000	0.000000	0.000000	0.000000	0.000000	0.000000	0.000000	0.000000	0.000000	0.000000	0.000000	0.000000	0.000000	0.000000	0.000000	0.000000	0.000000	0.000000	1.813598	348.684546	-67.887822	0.180052	0.000000	-0.907833	-0.000000	1.590044	0.000000	-1.093789	337.742961	67.455989	0.204640	0.000000	-1.581448	0.000000	-2.581316	-0.000000
0.892500	0.000000	0.000000	0.000000	0.000000	0.000000	0.000000	0.000000	0.000000	0.000000	0.000000	0.000000	0.000000	0.000000	0.000000	0.000000	0.000000	0.000000	0.000000	0.000000	0.000000	0.000000	0.000000	0.000000	0.000000	0.000000	0.000000	0.000000	1.900968	348.875946	-67.896954	0.180004	0.000000	-0.907863	-0.000000	1.590615	0.000000	-1.148665	337.422829	67.405198	0.204633	0.000000	-1.581447	0.000000	-2.581279	-0.000000
0.893000	0.000000	0.000000	0.000000	0.000000	0.000000	0.000000	0.000000	0.000000	0.000000	0.000000	0.000000	0.000000	0.000000	0.000000	0.000000	0.000000	0.000000	0.000000	0.000000	0.000000	0.000000	0.000000	0.000000	0.000000	0.000000	0.000000	0.000000	1.990757	349.068867	-67.906114	0.179955	0.000000	-0.907894	-0.000000	1.591230	0.000000	-1.205755	337.116509	67.359374	0.204626	0.000000	-1.581446	0.000000	-2.581153	-0.000000
0.893500	0.000000	0.000000	0.000000	0.000000	0.000000	0.000000	0.000000	0.000000	0.000000	0.000000	0.000000	0.000000	0.000000	0.000000	0.000000	0.000000	0.000000	0.000000	0.000000	0.000000	0.000000	0.000000	0.000000	0.000000	0.000000	0.000000	0.000000	2.082869	349.263268	-67.915380	0.179906	0.000000	-0.907924	-0.000000	1.591885	0.000000	-1.264973	336.824325	67.318512	0.204618	0.000000	-1.581444	0.000000	-2.580942	-0.000000
